# This file uses centimeters as units for non-parametric coordinates.

mtllib grass.mtl
g default
v -0.467581 0.098504 0.134961
v -0.402810 0.110151 0.110169
v -0.545042 0.423705 0.085356
v -0.480272 0.435351 0.060563
v -0.497050 0.445795 0.063840
v -0.416514 0.107687 0.115414
v -0.516865 0.447193 0.070265
v -0.435195 0.104328 0.122565
v -0.534414 0.439077 0.078141
v -0.453877 0.100968 0.129716
v -0.486946 0.179804 0.122560
v -0.474011 0.185495 0.116822
v -0.455613 0.190044 0.109490
v -0.436648 0.192214 0.102521
v -0.422176 0.191451 0.097767
v -0.506311 0.261104 0.110158
v -0.494145 0.270023 0.103929
v -0.476030 0.275761 0.096415
v -0.456782 0.276741 0.089627
v -0.441541 0.272751 0.085366
v -0.525677 0.342404 0.097757
v -0.514280 0.354550 0.091035
v -0.496448 0.361477 0.083340
v -0.476916 0.361268 0.076733
v -0.460907 0.354051 0.072965
v -0.160182 0.106570 -0.092665
v -0.136667 0.102085 -0.158789
v -0.237644 0.431770 -0.142271
v -0.214129 0.427285 -0.208395
v -0.222179 0.441142 -0.196374
v -0.141642 0.103034 -0.144799
v -0.230094 0.447193 -0.178027
v -0.148425 0.104328 -0.125727
v -0.235744 0.443729 -0.158229
v -0.155207 0.105621 -0.106655
v -0.179548 0.187870 -0.105066
v -0.175341 0.190148 -0.119548
v -0.168842 0.190044 -0.138802
v -0.161776 0.187561 -0.157693
v -0.156032 0.183385 -0.171190
v -0.198913 0.269170 -0.117468
v -0.195476 0.274675 -0.132442
v -0.189260 0.275761 -0.151877
v -0.181910 0.272088 -0.170586
v -0.175398 0.264685 -0.183592
v -0.218279 0.350470 -0.129869
v -0.215610 0.359202 -0.145336
v -0.209677 0.361477 -0.164952
v -0.202044 0.356615 -0.183480
v -0.194763 0.345985 -0.195993
v -0.083471 0.006218 0.067215
v 0.083471 0.006218 -0.067215
v -0.083471 1.006218 0.067215
v 0.083471 1.006218 -0.067215
v 0.048151 1.045911 -0.038774
v 0.048151 0.006218 -0.038774
v -0.000000 1.060541 0.000000
v -0.000000 0.006218 0.000000
v -0.048151 1.045911 0.038774
v -0.048151 0.006218 0.038774
v -0.083471 0.256218 0.067215
v -0.048151 0.266141 0.038774
v -0.000000 0.269799 0.000000
v 0.048151 0.266141 -0.038774
v 0.083471 0.256218 -0.067215
v -0.083471 0.506218 0.067215
v -0.048151 0.526064 0.038774
v -0.000000 0.533379 0.000000
v 0.048151 0.526064 -0.038774
v 0.083471 0.506218 -0.067215
v -0.083471 0.756218 0.067215
v -0.048151 0.785987 0.038774
v -0.000000 0.796960 0.000000
v 0.048151 0.785987 -0.038774
v 0.083471 0.756218 -0.067215
v 0.121578 -0.000466 -0.079157
v 0.018080 -0.015462 -0.266252
v 0.204629 0.692320 -0.180627
v 0.101132 0.677324 -0.367722
v 0.126325 0.707996 -0.332166
v 0.039977 -0.012289 -0.226668
v 0.157392 0.722456 -0.279687
v 0.069829 -0.007964 -0.172704
v 0.186029 0.716646 -0.224238
v 0.099681 -0.003639 -0.118740
v 0.142341 0.172731 -0.104524
v 0.121268 0.176433 -0.145115
v 0.091720 0.174641 -0.199450
v 0.061564 0.167782 -0.253043
v 0.038843 0.157735 -0.291619
v 0.163103 0.345927 -0.129892
v 0.142855 0.356504 -0.171489
v 0.113611 0.357246 -0.226195
v 0.083151 0.347853 -0.279417
v 0.059606 0.330931 -0.316987
v 0.183866 0.519124 -0.155260
v 0.164442 0.536575 -0.197864
v 0.135501 0.539851 -0.252941
v 0.104738 0.527924 -0.305792
v 0.080369 0.504128 -0.342354
v -0.015271 0.008435 0.016026
v 0.035458 -0.025915 0.174652
v 0.189008 0.834347 0.129544
v 0.239738 0.799997 0.288169
v 0.237113 0.840047 0.259115
v 0.024725 -0.018648 0.141091
v 0.225470 0.862038 0.215023
v 0.010093 -0.008740 0.095339
v 0.207849 0.859862 0.167610
v -0.004539 0.001167 0.049587
v 0.035798 0.214913 0.044406
v 0.048558 0.215841 0.079092
v 0.063938 0.208954 0.125260
v 0.077822 0.196026 0.170597
v 0.086528 0.180563 0.203031
v 0.086868 0.421391 0.072785
v 0.101655 0.430515 0.108598
v 0.117782 0.426649 0.155181
v 0.130919 0.410700 0.200103
v 0.137598 0.387041 0.231410
v 0.137938 0.627869 0.101165
v 0.154752 0.645188 0.138104
v 0.171626 0.644343 0.185102
v 0.184016 0.625373 0.229609
v 0.188668 0.593519 0.259790
v 0.293278 0.018647 0.126681
v 0.342723 0.025442 0.193036
v 0.410381 0.379314 0.002488
v 0.459826 0.386109 0.068844
v 0.454013 0.398987 0.049875
v 0.332262 0.024004 0.178998
v 0.441465 0.402304 0.028919
v 0.318001 0.022045 0.159859
v 0.425491 0.395067 0.011597
v 0.303739 0.020085 0.140720
v 0.322554 0.108814 0.095633
v 0.334177 0.113830 0.108439
v 0.348867 0.117109 0.127124
v 0.362700 0.117750 0.146717
v 0.371999 0.115609 0.161988
v 0.351830 0.198981 0.064585
v 0.364615 0.207576 0.076159
v 0.379733 0.212174 0.094389
v 0.393138 0.211496 0.114436
v 0.401275 0.205776 0.130940
v 0.381106 0.289147 0.033536
v 0.395053 0.301322 0.043878
v 0.410599 0.307239 0.061654
v 0.423576 0.305241 0.082156
v 0.430550 0.295942 0.099892
v 0.141622 0.014034 0.000000
v 0.297401 -0.002710 0.000000
v 0.219740 0.740826 0.000000
v 0.375520 0.724083 0.000000
v 0.345662 0.756473 0.000000
v 0.264443 0.000833 0.000000
v 0.301874 0.771936 0.000000
v 0.219512 0.005662 0.000000
v 0.255799 0.766132 0.000000
v 0.174580 0.010492 0.000000
v 0.161151 0.195732 0.000000
v 0.194885 0.199402 0.000000
v 0.240102 0.197231 0.000000
v 0.284748 0.189743 0.000000
v 0.316931 0.178989 0.000000
v 0.180681 0.377430 0.000000
v 0.215189 0.388312 0.000000
v 0.260693 0.388799 0.000000
v 0.305053 0.378653 0.000000
v 0.336461 0.360687 0.000000
v 0.200211 0.559128 0.000000
v 0.235494 0.577222 0.000000
v 0.281283 0.580367 0.000000
v 0.325358 0.567563 0.000000
v 0.355990 0.542385 0.000000
v -0.151475 -0.025525 0.111301
v -0.122868 -0.010642 0.007943
v -0.277475 0.819074 0.198041
v -0.248867 0.833957 0.094682
v -0.259921 0.864332 0.119993
v -0.128920 -0.013791 0.029811
v -0.270016 0.872396 0.151073
v -0.137171 -0.018084 0.059622
v -0.276423 0.855747 0.179616
v -0.145423 -0.022376 0.089434
v -0.182975 0.185625 0.132986
v -0.178173 0.197155 0.111980
v -0.170383 0.204536 0.082485
v -0.161670 0.205740 0.052356
v -0.154368 0.200507 0.029628
v -0.214475 0.396775 0.154671
v -0.210923 0.416686 0.134525
v -0.203594 0.427156 0.105348
v -0.194421 0.425271 0.074902
v -0.185868 0.411657 0.051313
v -0.245975 0.607924 0.176356
v -0.243673 0.636216 0.157071
v -0.236805 0.649776 0.128211
v -0.227171 0.644801 0.097447
v -0.217368 0.622807 0.072998
v -0.289763 0.001863 0.007855
v -0.120302 0.015947 0.007855
v -0.355474 0.792485 0.007855
v -0.186013 0.806569 0.007855
v -0.224474 0.834971 0.007855
v -0.156155 0.012967 0.007855
v -0.274313 0.842476 0.007855
v -0.205033 0.008905 0.007855
v -0.322230 0.826846 0.007855
v -0.253910 0.004843 0.007855
v -0.306191 0.199518 0.007855
v -0.270990 0.210344 0.007855
v -0.222353 0.217298 0.007855
v -0.173235 0.218468 0.007855
v -0.136730 0.213603 0.007855
v -0.322619 0.397174 0.007855
v -0.288070 0.415844 0.007855
v -0.239673 0.425690 0.007855
v -0.190315 0.423969 0.007855
v -0.153158 0.411258 0.007855
v -0.339046 0.594829 0.007855
v -0.305150 0.621345 0.007855
v -0.256993 0.634083 0.007855
v -0.207394 0.629470 0.007855
v -0.169585 0.608914 0.007855
vt 0.000000 0.000000
vt 1.000000 0.000000
vt 0.000000 1.000000
vt 1.000000 1.000000
vt 0.750000 1.000000
vt 0.750000 0.000000
vt 0.500000 1.000000
vt 0.500000 0.000000
vt 0.250000 1.000000
vt 0.250000 0.000000
vt 0.000000 0.250000
vt 0.250000 0.250000
vt 0.500000 0.250000
vt 0.750000 0.250000
vt 1.000000 0.250000
vt 0.000000 0.500000
vt 0.250000 0.500000
vt 0.500000 0.500000
vt 0.750000 0.500000
vt 1.000000 0.500000
vt 0.000000 0.750000
vt 0.250000 0.750000
vt 0.500000 0.750000
vt 0.750000 0.750000
vt 1.000000 0.750000
vt 1.000000 0.750000
vt 1.000000 1.000000
vt 0.750000 1.000000
vt 0.750000 0.750000
vt 0.500000 1.000000
vt 0.500000 0.750000
vt 0.250000 1.000000
vt 0.250000 0.750000
vt 0.000000 1.000000
vt 0.000000 0.750000
vt 0.250000 0.000000
vt 0.250000 0.250000
vt 0.000000 0.250000
vt 0.000000 0.000000
vt 0.500000 0.000000
vt 0.500000 0.250000
vt 0.750000 0.000000
vt 0.750000 0.250000
vt 1.000000 0.000000
vt 1.000000 0.250000
vt 0.250000 0.500000
vt 0.000000 0.500000
vt 0.500000 0.500000
vt 0.750000 0.500000
vt 1.000000 0.500000
vt 1.000000 0.750000
vt 1.000000 1.000000
vt 0.750000 1.000000
vt 0.750000 0.750000
vt 0.500000 1.000000
vt 0.500000 0.750000
vt 0.250000 1.000000
vt 0.250000 0.750000
vt 0.000000 1.000000
vt 0.000000 0.750000
vt 0.250000 0.000000
vt 0.250000 0.250000
vt 0.000000 0.250000
vt 0.000000 0.000000
vt 0.500000 0.000000
vt 0.500000 0.250000
vt 0.750000 0.000000
vt 0.750000 0.250000
vt 1.000000 0.000000
vt 1.000000 0.250000
vt 0.250000 0.500000
vt 0.000000 0.500000
vt 0.500000 0.500000
vt 0.750000 0.500000
vt 1.000000 0.500000
vt 1.000000 0.750000
vt 1.000000 1.000000
vt 0.750000 1.000000
vt 0.750000 0.750000
vt 0.500000 1.000000
vt 0.500000 0.750000
vt 0.250000 1.000000
vt 0.250000 0.750000
vt 0.000000 1.000000
vt 0.000000 0.750000
vt 0.250000 0.000000
vt 0.250000 0.250000
vt 0.000000 0.250000
vt 0.000000 0.000000
vt 0.500000 0.000000
vt 0.500000 0.250000
vt 0.750000 0.000000
vt 0.750000 0.250000
vt 1.000000 0.000000
vt 1.000000 0.250000
vt 0.250000 0.500000
vt 0.000000 0.500000
vt 0.500000 0.500000
vt 0.750000 0.500000
vt 1.000000 0.500000
vt 1.000000 0.750000
vt 1.000000 1.000000
vt 0.750000 1.000000
vt 0.750000 0.750000
vt 0.500000 1.000000
vt 0.500000 0.750000
vt 0.250000 1.000000
vt 0.250000 0.750000
vt 0.000000 1.000000
vt 0.000000 0.750000
vt 0.250000 0.000000
vt 0.250000 0.250000
vt 0.000000 0.250000
vt 0.000000 0.000000
vt 0.500000 0.000000
vt 0.500000 0.250000
vt 0.750000 0.000000
vt 0.750000 0.250000
vt 1.000000 0.000000
vt 1.000000 0.250000
vt 0.250000 0.500000
vt 0.000000 0.500000
vt 0.500000 0.500000
vt 0.750000 0.500000
vt 1.000000 0.500000
vt 1.000000 0.750000
vt 1.000000 1.000000
vt 0.750000 1.000000
vt 0.750000 0.750000
vt 0.500000 1.000000
vt 0.500000 0.750000
vt 0.250000 1.000000
vt 0.250000 0.750000
vt 0.000000 1.000000
vt 0.000000 0.750000
vt 0.250000 0.000000
vt 0.250000 0.250000
vt 0.000000 0.250000
vt 0.000000 0.000000
vt 0.500000 0.000000
vt 0.500000 0.250000
vt 0.750000 0.000000
vt 0.750000 0.250000
vt 1.000000 0.000000
vt 1.000000 0.250000
vt 0.250000 0.500000
vt 0.000000 0.500000
vt 0.500000 0.500000
vt 0.750000 0.500000
vt 1.000000 0.500000
vt 1.000000 0.750000
vt 1.000000 1.000000
vt 0.750000 1.000000
vt 0.750000 0.750000
vt 0.500000 1.000000
vt 0.500000 0.750000
vt 0.250000 1.000000
vt 0.250000 0.750000
vt 0.000000 1.000000
vt 0.000000 0.750000
vt 0.250000 0.000000
vt 0.250000 0.250000
vt 0.000000 0.250000
vt 0.000000 0.000000
vt 0.500000 0.000000
vt 0.500000 0.250000
vt 0.750000 0.000000
vt 0.750000 0.250000
vt 1.000000 0.000000
vt 1.000000 0.250000
vt 0.250000 0.500000
vt 0.000000 0.500000
vt 0.500000 0.500000
vt 0.750000 0.500000
vt 1.000000 0.500000
vt 1.000000 0.750000
vt 1.000000 1.000000
vt 0.750000 1.000000
vt 0.750000 0.750000
vt 0.500000 1.000000
vt 0.500000 0.750000
vt 0.250000 1.000000
vt 0.250000 0.750000
vt 0.000000 1.000000
vt 0.000000 0.750000
vt 0.250000 0.000000
vt 0.250000 0.250000
vt 0.000000 0.250000
vt 0.000000 0.000000
vt 0.500000 0.000000
vt 0.500000 0.250000
vt 0.750000 0.000000
vt 0.750000 0.250000
vt 1.000000 0.000000
vt 1.000000 0.250000
vt 0.250000 0.500000
vt 0.000000 0.500000
vt 0.500000 0.500000
vt 0.750000 0.500000
vt 1.000000 0.500000
vt 1.000000 0.750000
vt 1.000000 1.000000
vt 0.750000 1.000000
vt 0.750000 0.750000
vt 0.500000 1.000000
vt 0.500000 0.750000
vt 0.250000 1.000000
vt 0.250000 0.750000
vt 0.000000 1.000000
vt 0.000000 0.750000
vt 0.250000 0.000000
vt 0.250000 0.250000
vt 0.000000 0.250000
vt 0.000000 0.000000
vt 0.500000 0.000000
vt 0.500000 0.250000
vt 0.750000 0.000000
vt 0.750000 0.250000
vt 1.000000 0.000000
vt 1.000000 0.250000
vt 0.250000 0.500000
vt 0.000000 0.500000
vt 0.500000 0.500000
vt 0.750000 0.500000
vt 1.000000 0.500000
vn 0.314927 0.215993 0.924212
vn 0.314927 0.215993 0.924212
vn 0.314927 0.215993 0.924212
vn 0.314927 0.215993 0.924212
vn 0.314927 0.215993 0.924212
vn 0.314927 0.215993 0.924212
vn 0.314927 0.215993 0.924212
vn 0.314927 0.215993 0.924212
vn 0.314926 0.215993 0.924212
vn 0.314927 0.215993 0.924212
vn 0.314927 0.215993 0.924212
vn 0.314927 0.215993 0.924212
vn 0.314927 0.215993 0.924212
vn 0.314927 0.215993 0.924212
vn 0.314927 0.215993 0.924212
vn 0.314927 0.215993 0.924212
vn 0.314927 0.215993 0.924212
vn 0.314927 0.215993 0.924212
vn 0.314927 0.215993 0.924212
vn 0.314927 0.215993 0.924212
vn 0.314927 0.215993 0.924212
vn 0.314927 0.215993 0.924212
vn 0.314927 0.215993 0.924212
vn 0.314927 0.215993 0.924212
vn 0.314927 0.215993 0.924212
vn 0.914138 0.264597 0.307148
vn 0.914138 0.264598 0.307148
vn 0.914138 0.264597 0.307148
vn 0.914138 0.264598 0.307148
vn 0.914138 0.264597 0.307148
vn 0.914138 0.264598 0.307148
vn 0.914138 0.264598 0.307148
vn 0.914138 0.264597 0.307149
vn 0.914138 0.264597 0.307149
vn 0.914138 0.264597 0.307148
vn 0.914138 0.264598 0.307148
vn 0.914138 0.264598 0.307148
vn 0.914138 0.264597 0.307148
vn 0.914138 0.264597 0.307149
vn 0.914138 0.264598 0.307148
vn 0.914138 0.264598 0.307148
vn 0.914138 0.264597 0.307148
vn 0.914138 0.264597 0.307148
vn 0.914138 0.264597 0.307149
vn 0.914138 0.264597 0.307148
vn 0.914138 0.264597 0.307148
vn 0.914138 0.264597 0.307148
vn 0.914138 0.264598 0.307148
vn 0.914138 0.264598 0.307148
vn 0.914138 0.264598 0.307148
vn 0.627182 0.000000 0.778873
vn 0.627182 0.000000 0.778872
vn 0.627182 0.000000 0.778873
vn 0.627182 0.000000 0.778873
vn 0.627182 0.000000 0.778873
vn 0.627182 0.000000 0.778873
vn 0.627182 0.000000 0.778873
vn 0.627182 0.000000 0.778873
vn 0.627182 0.000000 0.778872
vn 0.627182 0.000000 0.778873
vn 0.627182 0.000000 0.778873
vn 0.627182 0.000000 0.778873
vn 0.627182 0.000000 0.778873
vn 0.627182 0.000000 0.778873
vn 0.627182 0.000000 0.778873
vn 0.627182 0.000000 0.778873
vn 0.627182 0.000000 0.778873
vn 0.627182 0.000000 0.778873
vn 0.627182 0.000000 0.778873
vn 0.627182 0.000000 0.778873
vn 0.627182 0.000000 0.778873
vn 0.627182 0.000000 0.778873
vn 0.627182 0.000000 0.778873
vn 0.627182 0.000000 0.778873
vn 0.627182 0.000000 0.778873
vn 0.867735 -0.172308 -0.466204
vn 0.867735 -0.172308 -0.466204
vn 0.867735 -0.172308 -0.466204
vn 0.867735 -0.172308 -0.466204
vn 0.867735 -0.172308 -0.466204
vn 0.867735 -0.172308 -0.466204
vn 0.867735 -0.172308 -0.466204
vn 0.867735 -0.172308 -0.466204
vn 0.867735 -0.172308 -0.466203
vn 0.867735 -0.172308 -0.466204
vn 0.867735 -0.172308 -0.466204
vn 0.867735 -0.172308 -0.466204
vn 0.867735 -0.172308 -0.466204
vn 0.867735 -0.172308 -0.466204
vn 0.867735 -0.172308 -0.466204
vn 0.867735 -0.172308 -0.466204
vn 0.867735 -0.172308 -0.466204
vn 0.867735 -0.172308 -0.466204
vn 0.867735 -0.172308 -0.466204
vn 0.867735 -0.172308 -0.466204
vn 0.867735 -0.172308 -0.466204
vn 0.867735 -0.172308 -0.466204
vn 0.867735 -0.172308 -0.466204
vn 0.867735 -0.172308 -0.466204
vn 0.867735 -0.172308 -0.466204
vn -0.924315 0.182555 0.335135
vn -0.924315 0.182555 0.335135
vn -0.924315 0.182555 0.335136
vn -0.924315 0.182555 0.335136
vn -0.924315 0.182555 0.335136
vn -0.924315 0.182555 0.335136
vn -0.924315 0.182555 0.335135
vn -0.924315 0.182555 0.335136
vn -0.924315 0.182555 0.335136
vn -0.924315 0.182555 0.335136
vn -0.924315 0.182555 0.335136
vn -0.924315 0.182555 0.335136
vn -0.924315 0.182555 0.335136
vn -0.924315 0.182555 0.335136
vn -0.924315 0.182555 0.335136
vn -0.924315 0.182555 0.335136
vn -0.924315 0.182555 0.335136
vn -0.924315 0.182555 0.335136
vn -0.924315 0.182555 0.335136
vn -0.924315 0.182555 0.335135
vn -0.924315 0.182555 0.335136
vn -0.924315 0.182555 0.335136
vn -0.924315 0.182555 0.335136
vn -0.924315 0.182555 0.335136
vn -0.924315 0.182555 0.335135
vn -0.747829 0.419885 0.514246
vn -0.747828 0.419884 0.514247
vn -0.747828 0.419885 0.514247
vn -0.747828 0.419885 0.514247
vn -0.747828 0.419885 0.514247
vn -0.747828 0.419885 0.514247
vn -0.747828 0.419885 0.514247
vn -0.747828 0.419885 0.514247
vn -0.747828 0.419886 0.514246
vn -0.747828 0.419885 0.514247
vn -0.747828 0.419885 0.514247
vn -0.747828 0.419885 0.514247
vn -0.747828 0.419885 0.514246
vn -0.747828 0.419886 0.514246
vn -0.747828 0.419885 0.514247
vn -0.747828 0.419885 0.514247
vn -0.747828 0.419885 0.514247
vn -0.747828 0.419885 0.514247
vn -0.747828 0.419885 0.514246
vn -0.747828 0.419885 0.514246
vn -0.747828 0.419885 0.514247
vn -0.747828 0.419885 0.514247
vn -0.747828 0.419885 0.514247
vn -0.747828 0.419885 0.514247
vn -0.747829 0.419885 0.514246
vn 0.000000 0.000000 1.000000
vn 0.000000 0.000000 1.000000
vn 0.000000 0.000000 1.000000
vn 0.000000 0.000000 1.000000
vn 0.000000 0.000000 1.000000
vn 0.000000 0.000000 1.000000
vn 0.000000 0.000000 1.000000
vn 0.000000 0.000000 1.000000
vn 0.000000 0.000000 1.000000
vn 0.000000 0.000000 1.000000
vn 0.000000 0.000000 1.000000
vn 0.000000 0.000000 1.000000
vn 0.000000 0.000000 1.000000
vn 0.000000 0.000000 1.000000
vn 0.000000 0.000000 1.000000
vn 0.000000 0.000000 1.000000
vn 0.000000 0.000000 1.000000
vn 0.000000 0.000000 1.000000
vn 0.000000 0.000000 1.000000
vn 0.000000 0.000000 1.000000
vn 0.000000 0.000000 1.000000
vn 0.000000 0.000000 1.000000
vn 0.000000 0.000000 1.000000
vn 0.000000 0.000000 1.000000
vn 0.000000 0.000000 1.000000
vn 0.953227 0.113432 0.280164
vn 0.953227 0.113432 0.280164
vn 0.953227 0.113432 0.280164
vn 0.953227 0.113432 0.280164
vn 0.953227 0.113432 0.280164
vn 0.953227 0.113432 0.280164
vn 0.953227 0.113433 0.280164
vn 0.953227 0.113433 0.280164
vn 0.953226 0.113433 0.280165
vn 0.953227 0.113432 0.280165
vn 0.953227 0.113433 0.280164
vn 0.953227 0.113432 0.280164
vn 0.953227 0.113432 0.280164
vn 0.953227 0.113432 0.280164
vn 0.953227 0.113432 0.280164
vn 0.953227 0.113432 0.280164
vn 0.953227 0.113432 0.280164
vn 0.953227 0.113432 0.280164
vn 0.953227 0.113432 0.280164
vn 0.953227 0.113432 0.280164
vn 0.953227 0.113432 0.280164
vn 0.953227 0.113432 0.280164
vn 0.953227 0.113432 0.280164
vn 0.953227 0.113432 0.280164
vn 0.953227 0.113432 0.280164
vn 0.000000 0.000000 1.000000
vn 0.000000 0.000000 1.000000
vn -0.000000 0.000000 1.000000
vn -0.000000 0.000000 1.000000
vn 0.000000 0.000000 1.000000
vn 0.000000 0.000000 1.000000
vn 0.000000 0.000000 1.000000
vn 0.000000 0.000000 1.000000
vn 0.000000 0.000000 1.000000
vn 0.000000 0.000000 1.000000
vn 0.000000 0.000000 1.000000
vn 0.000000 0.000000 1.000000
vn -0.000000 0.000000 1.000000
vn -0.000000 0.000000 1.000000
vn 0.000000 0.000000 1.000000
vn 0.000000 0.000000 1.000000
vn -0.000000 0.000000 1.000000
vn -0.000000 0.000000 1.000000
vn -0.000000 0.000000 1.000000
vn 0.000000 0.000000 1.000000
vn 0.000000 0.000000 1.000000
vn 0.000000 0.000000 1.000000
vn 0.000000 0.000000 1.000000
vn 0.000000 0.000000 1.000000
vn 0.000000 0.000000 1.000000
s 1
g Grass
usemtl initialShadingGroup
f 25/25/1 4/4/2 5/5/3 24/24/4
f 24/24/4 5/5/3 7/7/5 23/23/6
f 23/23/6 7/7/5 9/9/7 22/22/8
f 22/22/8 9/9/7 3/3/9 21/21/10
f 10/10/11 12/12/12 11/11/13 1/1/14
f 8/8/15 13/13/16 12/12/12 10/10/11
f 6/6/17 14/14/18 13/13/16 8/8/15
f 2/2/19 15/15/20 14/14/18 6/6/17
f 12/12/12 17/17/21 16/16/22 11/11/13
f 13/13/16 18/18/23 17/17/21 12/12/12
f 14/14/18 19/19/24 18/18/23 13/13/16
f 15/15/20 20/20/25 19/19/24 14/14/18
f 17/17/21 22/22/8 21/21/10 16/16/22
f 18/18/23 23/23/6 22/22/8 17/17/21
f 19/19/24 24/24/4 23/23/6 18/18/23
f 20/20/25 25/25/1 24/24/4 19/19/24
s 3
f 50/26/26 29/27/27 30/28/28 49/29/29
f 49/29/29 30/28/28 32/30/30 48/31/31
f 48/31/31 32/30/30 34/32/32 47/33/33
f 47/33/33 34/32/32 28/34/34 46/35/35
f 35/36/36 37/37/37 36/38/38 26/39/39
f 33/40/40 38/41/41 37/37/37 35/36/36
f 31/42/42 39/43/43 38/41/41 33/40/40
f 27/44/44 40/45/45 39/43/43 31/42/42
f 37/37/37 42/46/46 41/47/47 36/38/38
f 38/41/41 43/48/48 42/46/46 37/37/37
f 39/43/43 44/49/49 43/48/48 38/41/41
f 40/45/45 45/50/50 44/49/49 39/43/43
f 42/46/46 47/33/33 46/35/35 41/47/47
f 43/48/48 48/31/31 47/33/33 42/46/46
f 44/49/49 49/29/29 48/31/31 43/48/48
f 45/50/50 50/26/26 49/29/29 44/49/49
s 5
f 75/51/51 54/52/52 55/53/53 74/54/54
f 74/54/54 55/53/53 57/55/55 73/56/56
f 73/56/56 57/55/55 59/57/57 72/58/58
f 72/58/58 59/57/57 53/59/59 71/60/60
f 60/61/61 62/62/62 61/63/63 51/64/64
f 58/65/65 63/66/66 62/62/62 60/61/61
f 56/67/67 64/68/68 63/66/66 58/65/65
f 52/69/69 65/70/70 64/68/68 56/67/67
f 62/62/62 67/71/71 66/72/72 61/63/63
f 63/66/66 68/73/73 67/71/71 62/62/62
f 64/68/68 69/74/74 68/73/73 63/66/66
f 65/70/70 70/75/75 69/74/74 64/68/68
f 67/71/71 72/58/58 71/60/60 66/72/72
f 68/73/73 73/56/56 72/58/58 67/71/71
f 69/74/74 74/54/54 73/56/56 68/73/73
f 70/75/75 75/51/51 74/54/54 69/74/74
s 7
f 100/76/76 79/77/77 80/78/78 99/79/79
f 99/79/79 80/78/78 82/80/80 98/81/81
f 98/81/81 82/80/80 84/82/82 97/83/83
f 97/83/83 84/82/82 78/84/84 96/85/85
f 85/86/86 87/87/87 86/88/88 76/89/89
f 83/90/90 88/91/91 87/87/87 85/86/86
f 81/92/92 89/93/93 88/91/91 83/90/90
f 77/94/94 90/95/95 89/93/93 81/92/92
f 87/87/87 92/96/96 91/97/97 86/88/88
f 88/91/91 93/98/98 92/96/96 87/87/87
f 89/93/93 94/99/99 93/98/98 88/91/91
f 90/95/95 95/100/100 94/99/99 89/93/93
f 92/96/96 97/83/83 96/85/85 91/97/97
f 93/98/98 98/81/81 97/83/83 92/96/96
f 94/99/99 99/79/79 98/81/81 93/98/98
f 95/100/100 100/76/76 99/79/79 94/99/99
s 9
f 125/101/101 104/102/102 105/103/103 124/104/104
f 124/104/104 105/103/103 107/105/105 123/106/106
f 123/106/106 107/105/105 109/107/107 122/108/108
f 122/108/108 109/107/107 103/109/109 121/110/110
f 110/111/111 112/112/112 111/113/113 101/114/114
f 108/115/115 113/116/116 112/112/112 110/111/111
f 106/117/117 114/118/118 113/116/116 108/115/115
f 102/119/119 115/120/120 114/118/118 106/117/117
f 112/112/112 117/121/121 116/122/122 111/113/113
f 113/116/116 118/123/123 117/121/121 112/112/112
f 114/118/118 119/124/124 118/123/123 113/116/116
f 115/120/120 120/125/125 119/124/124 114/118/118
f 117/121/121 122/108/108 121/110/110 116/122/122
f 118/123/123 123/106/106 122/108/108 117/121/121
f 119/124/124 124/104/104 123/106/106 118/123/123
f 120/125/125 125/101/101 124/104/104 119/124/124
s 11
f 150/126/126 129/127/127 130/128/128 149/129/129
f 149/129/129 130/128/128 132/130/130 148/131/131
f 148/131/131 132/130/130 134/132/132 147/133/133
f 147/133/133 134/132/132 128/134/134 146/135/135
f 135/136/136 137/137/137 136/138/138 126/139/139
f 133/140/140 138/141/141 137/137/137 135/136/136
f 131/142/142 139/143/143 138/141/141 133/140/140
f 127/144/144 140/145/145 139/143/143 131/142/142
f 137/137/137 142/146/146 141/147/147 136/138/138
f 138/141/141 143/148/148 142/146/146 137/137/137
f 139/143/143 144/149/149 143/148/148 138/141/141
f 140/145/145 145/150/150 144/149/149 139/143/143
f 142/146/146 147/133/133 146/135/135 141/147/147
f 143/148/148 148/131/131 147/133/133 142/146/146
f 144/149/149 149/129/129 148/131/131 143/148/148
f 145/150/150 150/126/126 149/129/129 144/149/149
s 13
f 175/151/151 154/152/152 155/153/153 174/154/154
f 174/154/154 155/153/153 157/155/155 173/156/156
f 173/156/156 157/155/155 159/157/157 172/158/158
f 172/158/158 159/157/157 153/159/159 171/160/160
f 160/161/161 162/162/162 161/163/163 151/164/164
f 158/165/165 163/166/166 162/162/162 160/161/161
f 156/167/167 164/168/168 163/166/166 158/165/165
f 152/169/169 165/170/170 164/168/168 156/167/167
f 162/162/162 167/171/171 166/172/172 161/163/163
f 163/166/166 168/173/173 167/171/171 162/162/162
f 164/168/168 169/174/174 168/173/173 163/166/166
f 165/170/170 170/175/175 169/174/174 164/168/168
f 167/171/171 172/158/158 171/160/160 166/172/172
f 168/173/173 173/156/156 172/158/158 167/171/171
f 169/174/174 174/154/154 173/156/156 168/173/173
f 170/175/175 175/151/151 174/154/154 169/174/174
s 15
f 200/176/176 179/177/177 180/178/178 199/179/179
f 199/179/179 180/178/178 182/180/180 198/181/181
f 198/181/181 182/180/180 184/182/182 197/183/183
f 197/183/183 184/182/182 178/184/184 196/185/185
f 185/186/186 187/187/187 186/188/188 176/189/189
f 183/190/190 188/191/191 187/187/187 185/186/186
f 181/192/192 189/193/193 188/191/191 183/190/190
f 177/194/194 190/195/195 189/193/193 181/192/192
f 187/187/187 192/196/196 191/197/197 186/188/188
f 188/191/191 193/198/198 192/196/196 187/187/187
f 189/193/193 194/199/199 193/198/198 188/191/191
f 190/195/195 195/200/200 194/199/199 189/193/193
f 192/196/196 197/183/183 196/185/185 191/197/197
f 193/198/198 198/181/181 197/183/183 192/196/196
f 194/199/199 199/179/179 198/181/181 193/198/198
f 195/200/200 200/176/176 199/179/179 194/199/199
s 17
f 225/201/201 204/202/202 205/203/203 224/204/204
f 224/204/204 205/203/203 207/205/205 223/206/206
f 223/206/206 207/205/205 209/207/207 222/208/208
f 222/208/208 209/207/207 203/209/209 221/210/210
f 210/211/211 212/212/212 211/213/213 201/214/214
f 208/215/215 213/216/216 212/212/212 210/211/211
f 206/217/217 214/218/218 213/216/216 208/215/215
f 202/219/219 215/220/220 214/218/218 206/217/217
f 212/212/212 217/221/221 216/222/222 211/213/213
f 213/216/216 218/223/223 217/221/221 212/212/212
f 214/218/218 219/224/224 218/223/223 213/216/216
f 215/220/220 220/225/225 219/224/224 214/218/218
f 217/221/221 222/208/208 221/210/210 216/222/222
f 218/223/223 223/206/206 222/208/208 217/221/221
f 219/224/224 224/204/204 223/206/206 218/223/223
f 220/225/225 225/201/201 224/204/204 219/224/224
